<svg width="107" height="39" viewBox="0 0 107 39" fill="none" xmlns="http://www.w3.org/2000/svg">
<path d="M20.6134 25.3154V9.53054H25.8809V36.5H20.7187V31.8295H20.4378C19.8174 33.2693 18.8224 34.4691 17.4529 35.4289C16.0951 36.3771 14.4036 36.8512 12.3786 36.8512C10.6461 36.8512 9.11273 36.4707 7.7783 35.7099C6.45558 34.9373 5.41379 33.796 4.65293 32.286C3.90378 30.776 3.52921 28.909 3.52921 26.6849V9.53054H8.77912V26.0528C8.77912 27.8906 9.28831 29.3538 10.3067 30.4424C11.3251 31.531 12.6478 32.0753 14.2749 32.0753C15.2581 32.0753 16.2355 31.8295 17.2071 31.3379C18.1903 30.8462 19.0039 30.1029 19.6477 29.108C20.3032 28.113 20.6251 26.8488 20.6134 25.3154ZM20.5739 36.5V9.53054H25.6131V13.9201H25.9467C26.5086 12.4335 27.4274 11.2747 28.7033 10.4436C29.9792 9.60077 31.5068 9.17937 33.286 9.17937C35.0887 9.17937 36.5987 9.60077 37.8161 10.4436C39.0451 11.2864 39.9523 12.4452 40.5376 13.9201H40.8185C41.4623 12.4803 42.4866 11.3332 43.8912 10.4787C45.2959 9.61248 46.9698 9.17937 48.9129 9.17937C51.3593 9.17937 53.3551 9.94608 54.9002 11.4795C56.4571 13.0129 57.2355 15.3248 57.2355 18.415V36.5H51.9856V18.9066C51.9856 17.0806 51.4881 15.7579 50.4931 14.9385C49.4982 14.1191 48.31 13.7094 46.9288 13.7094C45.2198 13.7094 43.8912 14.2361 42.9431 15.2896C41.9949 16.3314 41.5209 17.6717 41.5209 19.3105V36.5H36.2885V18.573C36.2885 17.1098 35.832 15.9334 34.919 15.0438C34.0059 14.1542 32.8178 13.7094 31.3546 13.7094C30.3597 13.7094 29.4408 13.9728 28.598 14.4995C27.7669 15.0146 27.0938 15.7344 26.5788 16.6592C26.0755 17.5839 25.8238 18.655 25.8238 19.8723V36.5H20.5739ZM52.3323 36.5V0.540715H57.5823V13.9025H57.8983C58.2027 13.3407 58.6416 12.691 59.2152 11.9536C59.7888 11.2161 60.5847 10.5723 61.6031 10.0222C62.6215 9.4603 63.9676 9.17937 65.6415 9.17937C67.8187 9.17937 69.7618 9.72953 71.4708 10.8298C73.1798 11.9302 74.5201 13.5163 75.4917 15.5881C76.4749 17.66 76.9666 20.1533 76.9666 23.0679C76.9666 25.9826 76.4808 28.4817 75.5092 30.5653C74.5377 32.6372 73.2032 34.235 71.506 35.3587C69.8087 36.4707 67.8714 37.0267 65.6942 37.0267C64.0554 37.0267 62.7151 36.7517 61.6733 36.2015C60.6433 35.6514 59.8356 35.0075 59.2503 34.2701C58.665 33.5327 58.2144 32.8771 57.8983 32.3036H57.4594V36.5H52.3323ZM57.4769 23.0153C57.4769 24.9116 57.752 26.5737 58.3022 28.0018C58.8523 29.4299 59.6483 30.5478 60.6901 31.3554C61.7319 32.1514 63.0078 32.5494 64.5178 32.5494C66.0863 32.5494 67.3973 32.1338 68.4508 31.3028C69.5043 30.46 70.3003 29.3187 70.8387 27.8789C71.3889 26.4391 71.664 24.8179 71.664 23.0153C71.664 21.236 71.3948 19.6382 70.8563 18.2219C70.3295 16.8055 69.5336 15.6876 68.4684 14.8682C67.4149 14.0489 66.098 13.6392 64.5178 13.6392C62.9961 13.6392 61.7085 14.0313 60.655 14.8156C59.6132 15.5998 58.823 16.6943 58.2846 18.099C57.7461 19.5036 57.4769 21.1424 57.4769 23.0153Z" fill="white"/>
<path d="M83.1854 38.5001C81.022 38.5001 79.1588 38.0409 77.5958 37.1224C76.0424 36.1945 74.7962 35.1256 73.9934 33.2166C72.8429 30.4812 72.2541 26.0252 72.4637 20.2587C72.5494 17.9018 72.883 16.0546 73.7217 14.3503C74.5699 12.6459 75.7517 11.3156 77.267 10.3592C78.7919 9.40288 80.5741 8.92471 82.6136 8.92471C83.2749 8.92471 87.4776 8.92472 91.2527 8.92472C95.398 8.92472 100.164 8.73783 103.18 11.5807C104.105 12.4518 104.834 13.5833 105.368 14.9752C105.901 16.3576 106.168 18.0383 106.168 20.0173V21.5228L74.8796 21.395V17.6457L101.98 17.7735C101.98 16.6562 101.751 16.2345 101.293 15.3729C99.6964 12.3318 95.2043 12.4329 91.7694 12.4329C87.93 12.4329 83.2778 12.4329 82.6421 12.4329C81.4413 12.4329 80.393 12.7264 79.4971 13.3134C78.6108 13.891 77.9246 14.6485 77.4386 15.5859C76.962 16.5139 76.7238 17.5223 76.7238 18.6112V21.0967C76.7238 22.5549 76.8599 30.0827 77.7674 31.8531C78.2916 32.8757 79.0206 33.6569 79.9546 34.1966C80.8886 34.7269 81.9798 34.992 83.2283 34.992C84.0384 34.992 84.777 34.8784 85.4441 34.6511C86.1113 34.4144 86.6878 34.0641 87.1739 33.6001C87.6599 33.1361 88.0316 32.5633 88.2889 31.8815L92.3346 32.6059C92.0106 33.7895 91.4292 34.8263 90.5905 35.7163C89.7614 36.5969 88.7178 37.2834 87.4598 37.7758C86.2113 38.2587 84.7865 38.5001 83.1854 38.5001Z" fill="white"/>
<path d="M88.2712 37.3624V23.2818H92.4038V26.7607H92.6326C93.033 25.5821 93.7385 24.6553 94.749 23.9804C95.769 23.296 96.9225 22.9538 98.2095 22.9538C98.4764 22.9538 98.791 22.9633 99.1533 22.9823C99.5251 23.0014 99.8158 23.0251 100.026 23.0536V27.1314C99.854 27.0839 99.5489 27.0316 99.1104 26.9746C98.6719 26.9081 98.2333 26.8748 97.7948 26.8748C96.7843 26.8748 95.8834 27.0887 95.0922 27.5164C94.3105 27.9347 93.6908 28.5192 93.2332 29.2702C92.7756 30.0116 92.5468 30.8576 92.5468 31.8081C92.5468 31.8081 92.3284 33.3811 91.1909 35.0873C89.295 37.1728 88.2712 37.3624 88.2712 37.3624Z" fill="white"/>
<path d="M103.589 36.5561L104 36.5561L104 37.917L103.589 37.917L103.589 36.5561ZM101.443 37.7449L104 37.7449L104 38.2717L101.443 38.2717L101.443 37.7449ZM102.485 36.7334L102.885 36.7334L102.885 37.917L102.485 37.917L102.485 36.7334ZM101.443 36.5578L101.856 36.5578L101.856 37.917L101.443 37.917L101.443 36.5578ZM103.331 34.9177C103.285 34.9177 103.244 34.9247 103.208 34.9387C103.171 34.9516 103.137 34.9762 103.106 35.0125C103.075 35.0488 103.044 35.0997 103.013 35.1653C102.983 35.2308 102.951 35.3157 102.918 35.4199C102.881 35.5358 102.839 35.6458 102.792 35.75C102.745 35.8531 102.691 35.9444 102.629 36.024C102.565 36.1024 102.492 36.1645 102.409 36.2101C102.326 36.2546 102.229 36.2768 102.119 36.2768C102.013 36.2768 101.916 36.2534 101.83 36.2066C101.742 36.1598 101.667 36.0942 101.605 36.0099C101.542 35.9256 101.493 35.8261 101.459 35.7114C101.425 35.5955 101.408 35.4685 101.408 35.3303C101.408 35.1419 101.442 34.9774 101.51 34.8369C101.578 34.6964 101.671 34.5875 101.789 34.5103C101.907 34.4318 102.043 34.3926 102.195 34.3926L102.195 34.9159C102.12 34.9159 102.054 34.9317 101.998 34.9633C101.941 34.9938 101.896 35.0406 101.863 35.1038C101.83 35.1659 101.814 35.2443 101.814 35.3391C101.814 35.4304 101.828 35.5065 101.856 35.5674C101.883 35.6283 101.92 35.6739 101.967 35.7044C102.012 35.7348 102.064 35.75 102.121 35.75C102.164 35.75 102.204 35.7395 102.239 35.7184C102.274 35.6962 102.307 35.6634 102.337 35.6201C102.367 35.5768 102.396 35.5235 102.423 35.4603C102.45 35.3971 102.476 35.3239 102.502 35.2408C102.544 35.1015 102.592 34.9791 102.644 34.8738C102.697 34.7672 102.756 34.6783 102.822 34.6068C102.887 34.5354 102.962 34.4816 103.045 34.4453C103.128 34.409 103.222 34.3909 103.327 34.3909C103.439 34.3909 103.538 34.4125 103.626 34.4558C103.714 34.4991 103.788 34.5618 103.849 34.6437C103.91 34.7257 103.956 34.8234 103.988 34.937C104.019 35.0505 104.035 35.1776 104.035 35.318C104.035 35.4445 104.019 35.5692 103.986 35.6921C103.952 35.815 103.901 35.9268 103.833 36.0275C103.765 36.127 103.679 36.2066 103.573 36.2663C103.468 36.326 103.343 36.3559 103.199 36.3559L103.199 35.8273C103.279 35.8273 103.346 35.815 103.401 35.7904C103.456 35.7658 103.501 35.7313 103.535 35.6868C103.569 35.6412 103.593 35.5873 103.608 35.5253C103.624 35.462 103.631 35.393 103.631 35.318C103.631 35.2267 103.618 35.1518 103.593 35.0933C103.567 35.0336 103.531 34.9897 103.485 34.9616C103.44 34.9323 103.388 34.9177 103.331 34.9177ZM101.443 32.8894L104 32.8894L104 33.4145L101.443 33.4145L101.443 32.8894ZM101.443 32.1027L101.856 32.1027L101.856 34.1889L101.443 34.1889L101.443 32.1027ZM103.605 29.3054L104 29.3054L104 31.0544L103.663 31.0544L102.776 30.2273C102.684 30.1442 102.602 30.0786 102.532 30.0306C102.461 29.9826 102.397 29.9481 102.341 29.927C102.283 29.9047 102.229 29.8936 102.177 29.8936C102.1 29.8936 102.034 29.9065 101.979 29.9323C101.923 29.958 101.879 29.9961 101.849 30.0464C101.818 30.0956 101.803 30.1564 101.803 30.229C101.803 30.3063 101.822 30.373 101.859 30.4292C101.897 30.4842 101.949 30.5264 102.016 30.5557C102.082 30.5838 102.158 30.5978 102.242 30.5978L102.242 31.1053C102.09 31.1053 101.951 31.069 101.824 30.9964C101.697 30.9238 101.595 30.8214 101.52 30.6891C101.444 30.5568 101.406 30.4 101.406 30.2185C101.406 30.0394 101.436 29.8884 101.494 29.7654C101.551 29.6413 101.635 29.5477 101.743 29.4845C101.851 29.4201 101.98 29.3879 102.13 29.3879C102.214 29.3879 102.297 29.4013 102.377 29.4283C102.457 29.4552 102.537 29.4938 102.616 29.5442C102.695 29.5933 102.774 29.653 102.855 29.7233C102.936 29.7935 103.02 29.8714 103.106 29.9568L103.605 30.4011L103.605 29.3054ZM102.497 27.2683L102.939 27.2683C103.131 27.2683 103.297 27.2888 103.436 27.3298C103.574 27.3708 103.688 27.4299 103.777 27.5072C103.865 27.5833 103.93 27.674 103.972 27.7793C104.014 27.8847 104.035 28.0018 104.035 28.1306C104.035 28.2336 104.022 28.3296 103.996 28.4185C103.97 28.5075 103.928 28.5877 103.872 28.6591C103.816 28.7294 103.745 28.7902 103.659 28.8418C103.573 28.8921 103.47 28.9307 103.35 28.9577C103.231 28.9846 103.094 28.998 102.939 28.998L102.497 28.998C102.305 28.998 102.14 28.9776 102.003 28.9366C101.865 28.8944 101.752 28.8353 101.664 28.7592C101.577 28.682 101.512 28.5906 101.471 28.4853C101.429 28.3799 101.408 28.2628 101.408 28.1341C101.408 28.031 101.422 27.9356 101.448 27.8478C101.474 27.7589 101.515 27.6787 101.57 27.6073C101.625 27.5358 101.695 27.475 101.782 27.4246C101.868 27.3743 101.97 27.3357 102.089 27.3087C102.208 27.2818 102.343 27.2683 102.497 27.2683ZM103.006 27.7758L102.428 27.7758C102.336 27.7758 102.255 27.7811 102.186 27.7916C102.117 27.801 102.058 27.8156 102.01 27.8355C101.961 27.8554 101.921 27.88 101.891 27.9093C101.861 27.9386 101.838 27.9719 101.824 28.0094C101.81 28.0469 101.803 28.0884 101.803 28.1341C101.803 28.1914 101.814 28.2424 101.837 28.2868C101.859 28.3302 101.895 28.367 101.944 28.3975C101.992 28.4279 102.056 28.4513 102.137 28.4677C102.216 28.4829 102.314 28.4905 102.428 28.4905L103.006 28.4905C103.099 28.4905 103.18 28.4859 103.25 28.4765C103.32 28.466 103.381 28.4507 103.431 28.4308C103.48 28.4098 103.521 28.3852 103.552 28.3571C103.583 28.3278 103.605 28.2945 103.619 28.257C103.633 28.2184 103.64 28.1762 103.64 28.1306C103.64 28.0744 103.629 28.0246 103.607 27.9813C103.583 27.9368 103.547 27.8993 103.498 27.8689C103.447 27.8373 103.382 27.8139 103.301 27.7987C103.22 27.7834 103.122 27.7758 103.006 27.7758ZM103.605 25.1751L104 25.1751L104 26.9242L103.663 26.9242L102.776 26.0971C102.684 26.0139 102.602 25.9484 102.532 25.9004C102.461 25.8524 102.397 25.8178 102.341 25.7968C102.283 25.7745 102.229 25.7634 102.177 25.7634C102.1 25.7634 102.034 25.7763 101.979 25.802C101.923 25.8278 101.879 25.8658 101.849 25.9162C101.818 25.9654 101.803 26.0262 101.803 26.0988C101.803 26.1761 101.822 26.2428 101.859 26.299C101.897 26.354 101.949 26.3962 102.016 26.4254C102.082 26.4535 102.158 26.4676 102.242 26.4676L102.242 26.9751C102.09 26.9751 101.951 26.9388 101.824 26.8662C101.697 26.7936 101.595 26.6912 101.52 26.5589C101.444 26.4266 101.406 26.2697 101.406 26.0883C101.406 25.9092 101.436 25.7581 101.494 25.6352C101.551 25.5111 101.635 25.4175 101.743 25.3543C101.851 25.2899 101.98 25.2577 102.13 25.2577C102.214 25.2577 102.297 25.2711 102.377 25.2981C102.457 25.325 102.537 25.3636 102.616 25.414C102.695 25.4631 102.774 25.5228 102.855 25.5931C102.936 25.6633 103.02 25.7412 103.106 25.8266L103.605 26.2709L103.605 25.1751ZM102.502 24.341L102.502 24.0706C102.502 23.984 102.487 23.9125 102.458 23.8563C102.428 23.8002 102.386 23.7586 102.332 23.7317C102.277 23.7036 102.213 23.6895 102.14 23.6895C102.075 23.6895 102.017 23.7024 101.966 23.7282C101.915 23.7527 101.875 23.7908 101.847 23.8423C101.818 23.8938 101.803 23.9588 101.803 24.0372C101.803 24.0993 101.815 24.1566 101.84 24.2093C101.865 24.262 101.899 24.3041 101.944 24.3357C101.988 24.3674 102.042 24.3832 102.105 24.3832L102.105 24.8907C101.965 24.8907 101.842 24.8532 101.738 24.7783C101.634 24.7022 101.553 24.6003 101.494 24.4727C101.436 24.3451 101.406 24.2046 101.406 24.0513C101.406 23.878 101.434 23.7264 101.491 23.5965C101.546 23.4665 101.627 23.3652 101.735 23.2927C101.842 23.2201 101.976 23.1838 102.135 23.1838C102.216 23.1838 102.294 23.2025 102.37 23.24C102.445 23.2774 102.513 23.3313 102.574 23.4015C102.634 23.4706 102.682 23.5549 102.718 23.6544C102.753 23.7539 102.771 23.8657 102.771 23.9898L102.771 24.341L102.502 24.341ZM102.887 24.341L102.625 24.341L102.625 23.9898C102.625 23.8505 102.641 23.7282 102.672 23.6228C102.704 23.5174 102.75 23.429 102.809 23.3576C102.868 23.2862 102.938 23.2324 103.018 23.1961C103.098 23.1598 103.186 23.1416 103.284 23.1416C103.403 23.1416 103.509 23.1645 103.603 23.2101C103.696 23.2558 103.774 23.3202 103.838 23.4033C103.903 23.4852 103.952 23.5812 103.986 23.6913C104.019 23.8013 104.035 23.9213 104.035 24.0513C104.035 24.159 104.02 24.2649 103.991 24.3691C103.961 24.4721 103.916 24.5658 103.856 24.6501C103.795 24.7332 103.719 24.7999 103.628 24.8503C103.535 24.8994 103.426 24.924 103.299 24.924L103.299 24.4165C103.365 24.4165 103.423 24.4001 103.475 24.3674C103.526 24.3346 103.567 24.2895 103.596 24.2321C103.625 24.1736 103.64 24.1086 103.64 24.0372C103.64 23.9564 103.625 23.8874 103.596 23.83C103.566 23.7715 103.524 23.727 103.47 23.6965C103.415 23.6649 103.351 23.6491 103.278 23.6491C103.185 23.6491 103.11 23.6661 103.053 23.7001C102.996 23.734 102.954 23.7826 102.927 23.8458C102.9 23.909 102.887 23.984 102.887 24.0706L102.887 24.341Z" fill="white"/>
</svg>
